<svg width="24" height="24" viewBox="0 0 24 24" fill="none" xmlns="http://www.w3.org/2000/svg">
<path d="M7.5 5.6L10 7L8.6 4.5L10 2L7.5 3.4L5 2L6.4 4.5L5 7L7.5 5.6ZM19.5 15.4L17 14L18.4 16.5L17 19L19.5 17.6L22 19L20.6 16.5L22 14L19.5 15.4ZM22 2L19.5 3.4L17 2L18.4 4.5L17 7L19.5 5.6L22 7L20.6 4.5L22 2ZM14.37 7.29C14.2775 7.1973 14.1676 7.12375 14.0466 7.07357C13.9257 7.02339 13.796 6.99756 13.665 6.99756C13.534 6.99756 13.4044 7.02339 13.2834 7.07357C13.1624 7.12375 13.0525 7.1973 12.96 7.29L1.29 18.96C1.1973 19.0525 1.12375 19.1624 1.07357 19.2834C1.02339 19.4043 0.997559 19.534 0.997559 19.665C0.997559 19.796 1.02339 19.9257 1.07357 20.0466C1.12375 20.1676 1.1973 20.2775 1.29 20.37L3.63 22.71C4.02 23.1 4.65 23.1 5.04 22.71L16.7 11.05C16.7927 10.9575 16.8663 10.8476 16.9164 10.7266C16.9666 10.6057 16.9924 10.476 16.9924 10.345C16.9924 10.214 16.9666 10.0843 16.9164 9.96338C16.8663 9.8424 16.7927 9.73251 16.7 9.64L14.37 7.29ZM13.34 12.78L11.22 10.66L13.66 8.22L15.78 10.34L13.34 12.78Z" fill="white"/>
</svg>
